<svg xmlns="http://www.w3.org/2000/svg" width="234.70999999999998" height="35" viewBox="0 0 234.70999999999998 35"><rect class="svg__rect" x="0" y="0" width="106.33" height="35" fill="#E46C17"/><rect class="svg__rect" x="104.33" y="0" width="130.38" height="35" fill="#D35B09"/><path class="svg__text" d="M15.69 22L14.22 22L14.22 13.47L16.14 13.47L18.60 20.01L21.06 13.47L22.97 13.47L22.97 22L21.49 22L21.49 19.19L21.64 15.43L19.12 22L18.06 22L15.55 15.43L15.69 19.19L15.69 22ZM28.49 22L26.95 22L30.17 13.47L31.50 13.47L34.73 22L33.18 22L32.49 20.01L29.18 20.01L28.49 22ZM30.83 15.28L29.60 18.82L32.07 18.82L30.83 15.28ZM41.14 22L38.69 22L38.69 13.47L41.21 13.47Q42.34 13.47 43.21 13.97Q44.09 14.48 44.57 15.40Q45.05 16.33 45.05 17.52L45.05 17.52L45.05 17.95Q45.05 19.16 44.57 20.08Q44.08 21.00 43.19 21.50Q42.30 22 41.14 22L41.14 22ZM40.17 14.66L40.17 20.82L41.14 20.82Q42.30 20.82 42.93 20.09Q43.55 19.36 43.56 17.99L43.56 17.99L43.56 17.52Q43.56 16.13 42.96 15.40Q42.35 14.66 41.21 14.66L41.21 14.66L40.17 14.66ZM55.09 22L49.51 22L49.51 13.47L55.05 13.47L55.05 14.66L51.00 14.66L51.00 17.02L54.50 17.02L54.50 18.19L51.00 18.19L51.00 20.82L55.09 20.82L55.09 22ZM66.75 22L65.26 22L65.26 13.47L70.68 13.47L70.68 14.66L66.75 14.66L66.75 17.20L70.18 17.20L70.18 18.38L66.75 18.38L66.75 22ZM74.57 18.00L74.57 18.00L74.57 17.52Q74.57 16.28 75.02 15.32Q75.46 14.37 76.27 13.86Q77.07 13.35 78.11 13.35Q79.16 13.35 79.96 13.85Q80.77 14.35 81.21 15.29Q81.65 16.23 81.65 17.48L81.65 17.48L81.65 17.96Q81.65 19.21 81.22 20.16Q80.79 21.10 79.98 21.61Q79.17 22.12 78.13 22.12L78.13 22.12Q77.09 22.12 76.28 21.61Q75.47 21.10 75.02 20.17Q74.58 19.23 74.57 18.00ZM76.06 17.46L76.06 17.96Q76.06 19.36 76.60 20.13Q77.15 20.90 78.13 20.90L78.13 20.90Q79.11 20.90 79.64 20.15Q80.17 19.40 80.17 17.96L80.17 17.96L80.17 17.51Q80.17 16.09 79.63 15.34Q79.10 14.58 78.11 14.58L78.11 14.58Q77.15 14.58 76.61 15.33Q76.07 16.09 76.06 17.46L76.06 17.46ZM87.60 22L86.12 22L86.12 13.47L89.12 13.47Q90.59 13.47 91.40 14.13Q92.20 14.79 92.20 16.05L92.20 16.05Q92.20 16.90 91.79 17.48Q91.37 18.06 90.64 18.37L90.64 18.37L92.55 21.92L92.55 22L90.96 22L89.25 18.71L87.60 18.71L87.60 22ZM87.60 14.66L87.60 17.52L89.12 17.52Q89.87 17.52 90.30 17.15Q90.72 16.77 90.72 16.11L90.72 16.11Q90.72 15.43 90.33 15.05Q89.94 14.68 89.16 14.66L89.16 14.66L87.60 14.66Z" fill="#FFFFFF"/><path class="svg__text" d="M120.72 22L118.52 22L118.52 13.60L120.47 13.60L123.43 18.45L126.31 13.60L128.26 13.60L128.29 22L126.11 22L126.08 17.55L123.92 21.17L122.87 21.17L120.72 17.67L120.72 22ZM135.83 22L133.45 22L133.45 13.60L135.83 13.60L135.83 22ZM143.33 22L141.00 22L141.00 13.60L142.96 13.60L146.67 18.07L146.67 13.60L148.99 13.60L148.99 22L147.04 22L143.33 17.52L143.33 22ZM158.13 22L154.15 22L154.15 13.60L158.13 13.60Q159.51 13.60 160.58 14.12Q161.64 14.63 162.23 15.58Q162.82 16.53 162.82 17.80L162.82 17.80Q162.82 19.07 162.23 20.02Q161.64 20.97 160.58 21.48Q159.51 22 158.13 22L158.13 22ZM156.53 15.50L156.53 20.10L158.03 20.10Q159.11 20.10 159.76 19.49Q160.42 18.88 160.42 17.80L160.42 17.80Q160.42 16.72 159.76 16.11Q159.11 15.50 158.03 15.50L158.03 15.50L156.53 15.50ZM167.48 18.26L167.48 18.26L167.48 13.60L169.86 13.60L169.86 18.19Q169.86 20.20 171.45 20.20L171.45 20.20Q173.03 20.20 173.03 18.19L173.03 18.19L173.03 13.60L175.38 13.60L175.38 18.26Q175.38 20.13 174.34 21.15Q173.30 22.17 171.43 22.17L171.43 22.17Q169.55 22.17 168.52 21.15Q167.48 20.13 167.48 18.26ZM179.88 21.24L179.88 21.24L180.66 19.49Q181.22 19.86 181.96 20.09Q182.71 20.32 183.43 20.32L183.43 20.32Q184.79 20.32 184.80 19.64L184.80 19.64Q184.80 19.28 184.41 19.11Q184.02 18.93 183.15 18.74L183.15 18.74Q182.20 18.53 181.57 18.30Q180.93 18.06 180.48 17.55Q180.02 17.03 180.02 16.16L180.02 16.16Q180.02 15.39 180.44 14.77Q180.86 14.15 181.70 13.79Q182.53 13.43 183.74 13.43L183.74 13.43Q184.56 13.43 185.37 13.62Q186.18 13.80 186.79 14.17L186.79 14.17L186.06 15.93Q184.86 15.28 183.73 15.28L183.73 15.28Q183.02 15.28 182.70 15.49Q182.37 15.70 182.37 16.04L182.37 16.04Q182.37 16.37 182.76 16.54Q183.14 16.71 183.99 16.89L183.99 16.89Q184.95 17.10 185.58 17.33Q186.21 17.56 186.67 18.07Q187.14 18.58 187.14 19.46L187.14 19.46Q187.14 20.21 186.72 20.83Q186.30 21.44 185.46 21.80Q184.62 22.17 183.42 22.17L183.42 22.17Q182.40 22.17 181.44 21.92Q180.47 21.67 179.88 21.24ZM193.51 15.48L190.92 15.48L190.92 13.60L198.45 13.60L198.45 15.48L195.88 15.48L195.88 22L193.51 22L193.51 15.48ZM205.20 22L202.82 22L202.82 13.60L206.66 13.60Q207.80 13.60 208.64 13.98Q209.48 14.35 209.94 15.06Q210.39 15.76 210.39 16.71L210.39 16.71Q210.39 17.62 209.97 18.30Q209.54 18.98 208.75 19.36L208.75 19.36L210.56 22L208.01 22L206.49 19.77L205.20 19.77L205.20 22ZM205.20 15.47L205.20 17.93L206.51 17.93Q207.25 17.93 207.62 17.61Q207.99 17.29 207.99 16.71L207.99 16.71Q207.99 16.12 207.62 15.79Q207.25 15.47 206.51 15.47L206.51 15.47L205.20 15.47ZM217.31 18.95L214.10 13.60L216.61 13.60L218.60 16.94L220.59 13.60L222.90 13.60L219.68 18.99L219.68 22L217.31 22L217.31 18.95Z" fill="#FFFFFF" x="117.33"/></svg>