<svg xmlns="http://www.w3.org/2000/svg" width="225.24" height="35" viewBox="0 0 225.24 35"><rect class="svg__rect" x="0" y="0" width="96.86" height="35" fill="#E46C17"/><rect class="svg__rect" x="94.86" y="0" width="130.38" height="35" fill="#D35B09"/><path class="svg__text" d="M15.69 22L14.22 22L14.22 13.47L16.14 13.47L18.60 20.01L21.06 13.47L22.97 13.47L22.97 22L21.49 22L21.49 19.19L21.64 15.43L19.12 22L18.06 22L15.55 15.43L15.69 19.19L15.69 22ZM27.44 18.00L27.44 18.00L27.44 17.52Q27.44 16.28 27.88 15.32Q28.33 14.37 29.13 13.86Q29.94 13.35 30.98 13.35Q32.02 13.35 32.83 13.85Q33.64 14.35 34.07 15.29Q34.51 16.23 34.52 17.48L34.52 17.48L34.52 17.96Q34.52 19.21 34.09 20.16Q33.65 21.10 32.85 21.61Q32.04 22.12 30.99 22.12L30.99 22.12Q29.96 22.12 29.14 21.61Q28.33 21.10 27.89 20.17Q27.45 19.23 27.44 18.00ZM28.92 17.46L28.92 17.96Q28.92 19.36 29.47 20.13Q30.02 20.90 30.99 20.90L30.99 20.90Q31.98 20.90 32.51 20.15Q33.04 19.40 33.04 17.96L33.04 17.96L33.04 17.51Q33.04 16.09 32.50 15.34Q31.97 14.58 30.98 14.58L30.98 14.58Q30.02 14.58 29.48 15.33Q28.94 16.09 28.92 17.46L28.92 17.46ZM41.44 22L38.98 22L38.98 13.47L41.50 13.47Q42.64 13.47 43.51 13.97Q44.39 14.48 44.87 15.40Q45.35 16.33 45.35 17.52L45.35 17.52L45.35 17.95Q45.35 19.16 44.86 20.08Q44.38 21.00 43.49 21.50Q42.59 22 41.44 22L41.44 22ZM40.47 14.66L40.47 20.82L41.43 20.82Q42.60 20.82 43.22 20.09Q43.85 19.36 43.86 17.99L43.86 17.99L43.86 17.52Q43.86 16.13 43.26 15.40Q42.65 14.66 41.50 14.66L41.50 14.66L40.47 14.66ZM57.27 22L55.79 22L55.79 13.47L61.21 13.47L61.21 14.66L57.27 14.66L57.27 17.20L60.71 17.20L60.71 18.38L57.27 18.38L57.27 22ZM65.10 18.00L65.10 18.00L65.10 17.52Q65.10 16.28 65.54 15.32Q65.98 14.37 66.79 13.86Q67.60 13.35 68.64 13.35Q69.68 13.35 70.49 13.85Q71.29 14.35 71.73 15.29Q72.17 16.23 72.18 17.48L72.18 17.48L72.18 17.96Q72.18 19.21 71.74 20.16Q71.31 21.10 70.51 21.61Q69.70 22.12 68.65 22.12L68.65 22.12Q67.61 22.12 66.80 21.61Q65.99 21.10 65.55 20.17Q65.11 19.23 65.10 18.00ZM66.58 17.46L66.58 17.96Q66.58 19.36 67.13 20.13Q67.68 20.90 68.65 20.90L68.65 20.90Q69.64 20.90 70.17 20.15Q70.70 19.40 70.70 17.96L70.70 17.96L70.70 17.51Q70.70 16.09 70.16 15.34Q69.62 14.58 68.64 14.58L68.64 14.58Q67.68 14.58 67.14 15.33Q66.59 16.09 66.58 17.46L66.58 17.46ZM78.13 22L76.64 22L76.64 13.47L79.64 13.47Q81.12 13.47 81.92 14.13Q82.72 14.79 82.72 16.05L82.72 16.05Q82.72 16.90 82.31 17.48Q81.90 18.06 81.16 18.37L81.16 18.37L83.08 21.92L83.08 22L81.49 22L79.78 18.71L78.13 18.71L78.13 22ZM78.13 14.66L78.13 17.52L79.65 17.52Q80.40 17.52 80.82 17.15Q81.24 16.77 81.24 16.11L81.24 16.11Q81.24 15.43 80.85 15.05Q80.46 14.68 79.69 14.66L79.69 14.66L78.13 14.66Z" fill="#FFFFFF"/><path class="svg__text" d="M111.25 22L109.05 22L109.05 13.60L111.00 13.60L113.96 18.45L116.84 13.60L118.79 13.60L118.82 22L116.64 22L116.61 17.55L114.45 21.17L113.40 21.17L111.25 17.67L111.25 22ZM126.36 22L123.98 22L123.98 13.60L126.36 13.60L126.36 22ZM133.86 22L131.53 22L131.53 13.60L133.49 13.60L137.20 18.07L137.20 13.60L139.52 13.60L139.52 22L137.57 22L133.86 17.52L133.86 22ZM148.66 22L144.68 22L144.68 13.60L148.66 13.60Q150.04 13.60 151.11 14.12Q152.17 14.63 152.76 15.58Q153.35 16.53 153.35 17.80L153.35 17.80Q153.35 19.07 152.76 20.02Q152.17 20.97 151.11 21.48Q150.04 22 148.66 22L148.66 22ZM147.06 15.50L147.06 20.10L148.56 20.10Q149.64 20.10 150.29 19.49Q150.95 18.88 150.95 17.80L150.95 17.80Q150.95 16.72 150.29 16.11Q149.64 15.50 148.56 15.50L148.56 15.50L147.06 15.50ZM158.01 18.26L158.01 18.26L158.01 13.60L160.39 13.60L160.39 18.19Q160.39 20.20 161.98 20.20L161.98 20.20Q163.56 20.20 163.56 18.19L163.56 18.19L163.56 13.60L165.91 13.60L165.91 18.26Q165.91 20.13 164.87 21.15Q163.83 22.17 161.96 22.17L161.96 22.17Q160.08 22.17 159.05 21.15Q158.01 20.13 158.01 18.26ZM170.41 21.24L170.41 21.24L171.19 19.49Q171.75 19.86 172.49 20.09Q173.24 20.32 173.96 20.32L173.96 20.32Q175.32 20.32 175.33 19.64L175.33 19.64Q175.33 19.28 174.94 19.11Q174.55 18.93 173.68 18.74L173.68 18.74Q172.73 18.53 172.10 18.30Q171.46 18.06 171.01 17.55Q170.55 17.03 170.55 16.16L170.55 16.16Q170.55 15.39 170.97 14.77Q171.39 14.15 172.23 13.79Q173.06 13.43 174.27 13.43L174.27 13.43Q175.09 13.43 175.90 13.62Q176.71 13.80 177.32 14.17L177.32 14.17L176.59 15.93Q175.39 15.28 174.26 15.28L174.26 15.28Q173.55 15.28 173.23 15.49Q172.90 15.70 172.90 16.04L172.90 16.04Q172.90 16.37 173.29 16.54Q173.67 16.71 174.52 16.89L174.52 16.89Q175.48 17.10 176.11 17.33Q176.74 17.56 177.20 18.07Q177.67 18.58 177.67 19.46L177.67 19.46Q177.67 20.21 177.25 20.83Q176.83 21.44 175.99 21.80Q175.15 22.17 173.95 22.17L173.95 22.17Q172.93 22.17 171.97 21.92Q171.00 21.67 170.41 21.24ZM184.04 15.48L181.45 15.48L181.45 13.60L188.98 13.60L188.98 15.48L186.41 15.48L186.41 22L184.04 22L184.04 15.48ZM195.73 22L193.35 22L193.35 13.60L197.19 13.60Q198.33 13.60 199.17 13.98Q200.01 14.35 200.47 15.06Q200.92 15.76 200.92 16.71L200.92 16.71Q200.92 17.62 200.50 18.30Q200.07 18.98 199.28 19.36L199.28 19.36L201.09 22L198.54 22L197.02 19.77L195.73 19.77L195.73 22ZM195.73 15.47L195.73 17.93L197.04 17.93Q197.78 17.93 198.15 17.61Q198.52 17.29 198.52 16.71L198.52 16.71Q198.52 16.12 198.15 15.79Q197.78 15.47 197.04 15.47L197.04 15.47L195.73 15.47ZM207.84 18.95L204.63 13.60L207.14 13.60L209.13 16.94L211.12 13.60L213.43 13.60L210.21 18.99L210.21 22L207.84 22L207.84 18.95Z" fill="#FFFFFF" x="107.86"/></svg>