<svg xmlns="http://www.w3.org/2000/svg" width="84.04" height="35" viewBox="0 0 84.04 35"><rect class="svg__rect" x="0" y="0" width="0" height="35" fill="#31C4F3"/><rect class="svg__rect" x="0" y="0" width="84.04" height="35" fill="#45A4B8"/><path class="svg__text" d="" fill="#FFFFFF"/><path class="svg__text" d="M16.52 22L14.19 22L14.19 13.60L16.14 13.60L19.85 18.07L19.85 13.60L22.18 13.60L22.18 22L20.23 22L16.52 17.52L16.52 22ZM28.76 22L26.33 22L30.04 13.60L32.39 13.60L36.10 22L33.64 22L32.97 20.37L29.42 20.37L28.76 22ZM31.20 15.93L30.11 18.61L32.28 18.61L31.20 15.93ZM42.84 22L39.25 13.60L41.82 13.60L44.10 19.07L46.43 13.60L48.78 13.60L45.18 22L42.84 22ZM54.35 22L51.92 22L55.63 13.60L57.98 13.60L61.69 22L59.22 22L58.56 20.37L55.01 20.37L54.35 22ZM56.79 15.93L55.70 18.61L57.86 18.61L56.79 15.93ZM72.23 22L65.84 22L65.84 13.60L68.22 13.60L68.22 20.11L72.23 20.11L72.23 22Z" fill="#FFFFFF" x="39"/></svg>