<svg xmlns="http://www.w3.org/2000/svg" width="99.88" height="35" viewBox="0 0 99.88 35">
    <rect class="svg__rect" x="0" y="0" width="0" height="35" fill="#31C4F3"/>
    <rect class="svg__rect" x="0" y="0" width="99.88" height="35" fill="#E46C17"/>
    <path class="svg__text" d="" fill="#FFFFFF"/>
    <path class="svg__text"
          d="M13.76 17.80L13.76 17.80Q13.76 16.54 14.36 15.54Q14.96 14.55 16.02 13.99Q17.09 13.43 18.44 13.43L18.44 13.43Q19.61 13.43 20.55 13.83Q21.49 14.22 22.11 14.97L22.11 14.97L20.60 16.33Q19.75 15.40 18.58 15.40L18.58 15.40Q18.56 15.40 18.56 15.40L18.56 15.40Q17.48 15.40 16.82 16.06Q16.16 16.71 16.16 17.80L16.16 17.80Q16.16 18.50 16.46 19.04Q16.76 19.59 17.30 19.89Q17.84 20.20 18.54 20.20L18.54 20.20Q19.22 20.20 19.82 19.93L19.82 19.93L19.82 17.62L21.92 17.62L21.92 21.10Q21.20 21.61 20.26 21.89Q19.33 22.17 18.39 22.17L18.39 22.17Q17.07 22.17 16.01 21.61Q14.96 21.05 14.36 20.05Q13.76 19.06 13.76 17.80ZM29.29 22L26.91 22L26.91 13.60L30.75 13.60Q31.89 13.60 32.73 13.98Q33.57 14.35 34.03 15.06Q34.48 15.76 34.48 16.71L34.48 16.71Q34.48 17.62 34.06 18.30Q33.63 18.98 32.84 19.36L32.84 19.36L34.65 22L32.11 22L30.58 19.77L29.29 19.77L29.29 22ZM29.29 15.47L29.29 17.93L30.61 17.93Q31.34 17.93 31.71 17.61Q32.08 17.29 32.08 16.71L32.08 16.71Q32.08 16.12 31.71 15.79Q31.34 15.47 30.61 15.47L30.61 15.47L29.29 15.47ZM38.84 17.80L38.84 17.80Q38.84 16.55 39.45 15.55Q40.05 14.56 41.11 14.00Q42.18 13.43 43.51 13.43L43.51 13.43Q44.84 13.43 45.90 14.00Q46.97 14.56 47.57 15.55Q48.18 16.55 48.18 17.80L48.18 17.80Q48.18 19.05 47.57 20.04Q46.97 21.04 45.90 21.60Q44.84 22.17 43.51 22.17L43.51 22.17Q42.18 22.17 41.11 21.60Q40.05 21.04 39.45 20.04Q38.84 19.05 38.84 17.80ZM41.24 17.80L41.24 17.80Q41.24 18.51 41.54 19.05Q41.84 19.60 42.36 19.90Q42.88 20.20 43.51 20.20L43.51 20.20Q44.15 20.20 44.66 19.90Q45.18 19.60 45.48 19.05Q45.78 18.51 45.78 17.80L45.78 17.80Q45.78 17.09 45.48 16.54Q45.18 16 44.66 15.70Q44.15 15.40 43.51 15.40L43.51 15.40Q42.87 15.40 42.36 15.70Q41.84 16 41.54 16.54Q41.24 17.09 41.24 17.80ZM52.84 18.26L52.84 18.26L52.84 13.60L55.22 13.60L55.22 18.19Q55.22 20.20 56.81 20.20L56.81 20.20Q58.39 20.20 58.39 18.19L58.39 18.19L58.39 13.60L60.73 13.60L60.73 18.26Q60.73 20.13 59.69 21.15Q58.65 22.17 56.79 22.17L56.79 22.17Q54.91 22.17 53.87 21.15Q52.84 20.13 52.84 18.26ZM68.15 22L65.82 22L65.82 13.60L67.78 13.60L71.49 18.07L71.49 13.60L73.81 13.60L73.81 22L71.86 22L68.15 17.52L68.15 22ZM82.95 22L78.97 22L78.97 13.60L82.95 13.60Q84.33 13.60 85.40 14.12Q86.46 14.63 87.05 15.58Q87.64 16.53 87.64 17.80L87.64 17.80Q87.64 19.07 87.05 20.02Q86.46 20.97 85.40 21.48Q84.33 22 82.95 22L82.95 22ZM81.35 15.50L81.35 20.10L82.85 20.10Q83.93 20.10 84.59 19.49Q85.24 18.88 85.24 17.80L85.24 17.80Q85.24 16.72 84.59 16.11Q83.93 15.50 82.85 15.50L82.85 15.50L81.35 15.50Z"
          fill="#FFFFFF" x="39"/>
</svg>