<svg xmlns="http://www.w3.org/2000/svg" width="99.94" height="35" viewBox="0 0 99.94 35">
    <rect class="svg__rect" x="0" y="0" width="0" height="35" fill="#31C4F3"/>
    <rect class="svg__rect" x="0" y="0" width="99.94" height="35" fill="#419B5A"/>
    <path class="svg__text" d="" fill="#FFFFFF"/>
    <path class="svg__text"
          d="M17.43 19.46L13.92 19.46L13.92 17.71L17.43 17.71L17.43 19.46ZM35.69 22L29.30 22L29.30 13.60L31.68 13.60L31.68 20.11L35.69 20.11L35.69 22ZM39.68 17.80L39.68 17.80Q39.68 16.55 40.28 15.55Q40.88 14.56 41.95 14.00Q43.01 13.43 44.34 13.43L44.34 13.43Q45.67 13.43 46.73 14.00Q47.80 14.56 48.40 15.55Q49.01 16.55 49.01 17.80L49.01 17.80Q49.01 19.05 48.40 20.04Q47.80 21.04 46.74 21.60Q45.68 22.17 44.34 22.17L44.34 22.17Q43.01 22.17 41.95 21.60Q40.88 21.04 40.28 20.04Q39.68 19.05 39.68 17.80ZM42.07 17.80L42.07 17.80Q42.07 18.51 42.37 19.05Q42.68 19.60 43.19 19.90Q43.71 20.20 44.34 20.20L44.34 20.20Q44.98 20.20 45.49 19.90Q46.01 19.60 46.31 19.05Q46.61 18.51 46.61 17.80L46.61 17.80Q46.61 17.09 46.31 16.54Q46.01 16 45.49 15.70Q44.98 15.40 44.34 15.40L44.34 15.40Q43.70 15.40 43.19 15.70Q42.68 16 42.37 16.54Q42.07 17.09 42.07 17.80ZM56.12 22L53.74 22L53.74 13.60L57.58 13.60Q58.73 13.60 59.56 13.98Q60.40 14.35 60.86 15.06Q61.31 15.76 61.31 16.71L61.31 16.71Q61.31 17.62 60.89 18.30Q60.46 18.98 59.67 19.36L59.67 19.36L61.48 22L58.94 22L57.41 19.77L56.12 19.77L56.12 22ZM56.12 15.47L56.12 17.93L57.44 17.93Q58.17 17.93 58.54 17.61Q58.91 17.29 58.91 16.71L58.91 16.71Q58.91 16.12 58.54 15.79Q58.17 15.47 57.44 15.47L57.44 15.47L56.12 15.47ZM72.85 22L66.10 22L66.10 13.60L72.69 13.60L72.69 15.44L68.46 15.44L68.46 16.85L72.19 16.85L72.19 18.63L68.46 18.63L68.46 20.17L72.85 20.17L72.85 22ZM87.86 19.46L84.36 19.46L84.36 17.71L87.86 17.71L87.86 19.46Z"
          fill="#FFFFFF" x="39"/>
</svg>