<svg xmlns="http://www.w3.org/2000/svg" width="104.86" height="35" viewBox="0 0 104.86 35">
    <rect class="svg__rect" x="0" y="0" width="0" height="35" fill="#31C4F3"/>
    <rect class="svg__rect" x="0" y="0" width="104.86" height="35" fill="#09537E"/>
    <path class="svg__text" d="" fill="#FFFFFF"/>
    <path class="svg__text"
          d="M17.43 19.46L13.92 19.46L13.92 17.71L17.43 17.71L17.43 19.46ZM31.68 22L29.30 22L29.30 13.60L31.68 13.60L31.68 16.76L34.92 16.76L34.92 13.60L37.29 13.60L37.29 22L34.92 22L34.92 18.72L31.68 18.72L31.68 22ZM42.03 17.80L42.03 17.80Q42.03 16.55 42.63 15.55Q43.23 14.56 44.30 14.00Q45.36 13.43 46.69 13.43L46.69 13.43Q48.02 13.43 49.08 14.00Q50.15 14.56 50.75 15.55Q51.36 16.55 51.36 17.80L51.36 17.80Q51.36 19.05 50.75 20.04Q50.15 21.04 49.09 21.60Q48.03 22.17 46.69 22.17L46.69 22.17Q45.36 22.17 44.30 21.60Q43.23 21.04 42.63 20.04Q42.03 19.05 42.03 17.80ZM44.42 17.80L44.42 17.80Q44.42 18.51 44.72 19.05Q45.03 19.60 45.54 19.90Q46.06 20.20 46.69 20.20L46.69 20.20Q47.33 20.20 47.84 19.90Q48.36 19.60 48.66 19.05Q48.96 18.51 48.96 17.80L48.96 17.80Q48.96 17.09 48.66 16.54Q48.36 16 47.84 15.70Q47.33 15.40 46.69 15.40L46.69 15.40Q46.05 15.40 45.54 15.70Q45.03 16 44.72 16.54Q44.42 17.09 44.42 17.80ZM58.29 22L56.09 22L56.09 13.60L58.05 13.60L61.00 18.45L63.88 13.60L65.83 13.60L65.86 22L63.68 22L63.65 17.55L61.49 21.17L60.44 21.17L58.29 17.67L58.29 22ZM77.76 22L71.02 22L71.02 13.60L77.61 13.60L77.61 15.44L73.37 15.44L73.37 16.85L77.11 16.85L77.11 18.63L73.37 18.63L73.37 20.17L77.76 20.17L77.76 22ZM92.78 19.46L89.28 19.46L89.28 17.71L92.78 17.71L92.78 19.46Z"
          fill="#FFFFFF" x="39"/>
</svg>