<?xml version="1.0" encoding="UTF-8" standalone="no"?>
<svg
   xmlns:dc="http://purl.org/dc/elements/1.1/"
   xmlns:cc="http://creativecommons.org/ns#"
   xmlns:rdf="http://www.w3.org/1999/02/22-rdf-syntax-ns#"
   xmlns:svg="http://www.w3.org/2000/svg"
   xmlns="http://www.w3.org/2000/svg"
   xmlns:sodipodi="http://sodipodi.sourceforge.net/DTD/sodipodi-0.dtd"
   xmlns:inkscape="http://www.inkscape.org/namespaces/inkscape"
   width="96"
   height="32"
   viewBox="0 0 25.399999 8.4666659"
   version="1.1"
   id="svg8"
   inkscape:version="1.0.2-2 (e86c870879, 2021-01-15)"
   sodipodi:docname="home-button.svg"
   inkscape:export-filename="C:\Users\alen2_000\Downloads\test.png"
   inkscape:export-xdpi="96"
   inkscape:export-ydpi="96">
  <defs
     id="defs2" />
  <sodipodi:namedview
     id="base"
     pagecolor="#ffffff"
     bordercolor="#666666"
     borderopacity="1.0"
     inkscape:pageopacity="0.0"
     inkscape:pageshadow="2"
     inkscape:zoom="3.8380281"
     inkscape:cx="21.774338"
     inkscape:cy="-24.033428"
     inkscape:document-units="px"
     inkscape:current-layer="layer2"
     inkscape:document-rotation="0"
     showgrid="false"
     inkscape:pagecheckerboard="true"
     borderlayer="true"
     inkscape:showpageshadow="false"
     units="px"
     inkscape:window-width="1366"
     inkscape:window-height="715"
     inkscape:window-x="-8"
     inkscape:window-y="-8"
     inkscape:window-maximized="1"
     showguides="false" />
  <metadata
     id="metadata5">
    <rdf:RDF>
      <cc:Work
         rdf:about="">
        <dc:format>image/svg+xml</dc:format>
        <dc:type
           rdf:resource="http://purl.org/dc/dcmitype/StillImage" />
        <dc:title></dc:title>
      </cc:Work>
    </rdf:RDF>
  </metadata>
  <g
     inkscape:label="base"
     inkscape:groupmode="layer"
     id="layer1"
     style="display:inline">
    <rect
       style="fill:#007c91;fill-opacity:1;fill-rule:evenodd;stroke-width:3.00071;stroke-linecap:round;stroke-linejoin:round"
       id="rect11"
       width="25.399998"
       height="8.4666662"
       x="-1.110223e-16"
       y="-5.5511151e-17"
       ry="0"
       rx="0" />
  </g>
  <g
     inkscape:groupmode="layer"
     id="layer2"
     inkscape:label="Icon">
    <text
       xml:space="preserve"
       style="font-style:normal;font-variant:normal;font-weight:bold;font-stretch:normal;font-size:4.8927px;font-family:Poppins;-inkscape-font-specification:'Poppins Bold';fill:#ffffff;stroke-width:0.122318"
       x="9.0893612"
       y="5.9580097"
       id="text879"><tspan
         sodipodi:role="line"
         id="tspan877"
         x="9.0893612"
         y="5.9580097"
         style="font-style:normal;font-variant:normal;font-weight:bold;font-stretch:normal;font-family:Poppins;-inkscape-font-specification:'Poppins Bold';fill:#ffffff;stroke-width:0.122318">HOME</tspan></text>
    <g
       id="g848"
       transform="matrix(0.01033531,0,0,0.01033531,1.5875029,1.5874872)"
       style="fill:#ffffff">
	<path
   d="M 490.134,185.472 338.966,34.304 c -45.855,-45.737 -120.076,-45.737 -165.931,0 L 21.867,185.472 C 7.819,199.445 -0.055,218.457 0,238.272 V 459.669 C 0.047,488.568 23.475,511.976 52.374,512 H 459.627 C 488.526,511.977 511.953,488.568 512,459.669 V 238.272 c 0.056,-19.815 -7.818,-38.827 -21.866,-52.8 z M 448,448 H 341.334 v -67.883 c 0,-44.984 -36.467,-81.451 -81.451,-81.451 0,0 0,0 0,0 h -7.765 c -44.984,0 -81.451,36.467 -81.451,81.451 v 0 V 448 H 64 V 238.272 c 0.007,-2.829 1.125,-5.541 3.115,-7.552 L 218.283,79.552 c 20.825,-20.831 54.594,-20.835 75.425,-0.01 0.003,0.003 0.007,0.007 0.01,0.01 L 444.886,230.72 c 1.989,2.011 3.108,4.723 3.115,7.552 V 448 Z"
   id="path846"
   style="fill:#ffffff" />

</g>
  </g>
</svg>
