<?xml version="1.0" encoding="UTF-8" standalone="no"?>
<svg
   xmlns:dc="http://purl.org/dc/elements/1.1/"
   xmlns:cc="http://creativecommons.org/ns#"
   xmlns:rdf="http://www.w3.org/1999/02/22-rdf-syntax-ns#"
   xmlns:svg="http://www.w3.org/2000/svg"
   xmlns="http://www.w3.org/2000/svg"
   xmlns:sodipodi="http://sodipodi.sourceforge.net/DTD/sodipodi-0.dtd"
   xmlns:inkscape="http://www.inkscape.org/namespaces/inkscape"
   width="128"
   height="32"
   viewBox="0 0 33.866665 8.4666659"
   version="1.1"
   id="svg8"
   inkscape:version="1.0.2-2 (e86c870879, 2021-01-15)"
   sodipodi:docname="release-button.svg"
   inkscape:export-filename="C:\Users\alen2_000\Downloads\test.png"
   inkscape:export-xdpi="96"
   inkscape:export-ydpi="96">
  <defs
     id="defs2" />
  <sodipodi:namedview
     id="base"
     pagecolor="#ffffff"
     bordercolor="#666666"
     borderopacity="1.0"
     inkscape:pageopacity="0.0"
     inkscape:pageshadow="2"
     inkscape:zoom="3.8380281"
     inkscape:cx="52.242782"
     inkscape:cy="7.2326268"
     inkscape:document-units="px"
     inkscape:current-layer="layer2"
     inkscape:document-rotation="0"
     showgrid="false"
     inkscape:pagecheckerboard="true"
     borderlayer="true"
     inkscape:showpageshadow="false"
     units="px"
     inkscape:window-width="1366"
     inkscape:window-height="715"
     inkscape:window-x="-8"
     inkscape:window-y="-8"
     inkscape:window-maximized="1"
     showguides="false" />
  <metadata
     id="metadata5">
    <rdf:RDF>
      <cc:Work
         rdf:about="">
        <dc:format>image/svg+xml</dc:format>
        <dc:type
           rdf:resource="http://purl.org/dc/dcmitype/StillImage" />
        <dc:title></dc:title>
      </cc:Work>
    </rdf:RDF>
  </metadata>
  <g
     inkscape:label="base"
     inkscape:groupmode="layer"
     id="layer1"
     style="display:inline">
    <rect
       style="fill:#ff6600;fill-opacity:1;fill-rule:evenodd;stroke-width:3.46492;stroke-linecap:round;stroke-linejoin:round"
       id="rect11"
       width="33.866665"
       height="8.4666662"
       x="-1.110223e-16"
       y="-5.5511151e-17"
       ry="0"
       rx="0" />
  </g>
  <g
     inkscape:groupmode="layer"
     id="layer2"
     inkscape:label="Icon"
     style="display:inline">
    <text
       xml:space="preserve"
       style="font-style:normal;font-variant:normal;font-weight:bold;font-stretch:normal;font-size:4.8927px;font-family:Poppins;-inkscape-font-specification:'Poppins Bold';fill:#ffffff;stroke-width:0.122318"
       x="9.0893612"
       y="5.9580097"
       id="text879"><tspan
         sodipodi:role="line"
         id="tspan877"
         x="9.0893612"
         y="5.9580097"
         style="font-style:normal;font-variant:normal;font-weight:bold;font-stretch:normal;font-family:Poppins;-inkscape-font-specification:'Poppins Bold';fill:#ffffff;stroke-width:0.122318">RELEASES</tspan></text>
    <g
       id="g876"
       transform="matrix(0.01033529,0,0,0.01033529,1.5874999,1.5874988)"
       style="fill:#ffffff">
	<path
   d="m 188.821,377.6 c 37.49,37.491 98.274,37.491 135.765,10e-4 0,0 10e-4,-10e-4 10e-4,-10e-4 l 68.523,-68.523 c 12.712,-12.278 13.064,-32.536 0.786,-45.248 -12.278,-12.712 -32.536,-13.064 -45.248,-0.786 -0.267,0.257 -0.529,0.52 -0.786,0.786 L 288.491,323.178 288,32 C 288,14.327 273.673,0 256,0 v 0 c -17.673,0 -32,14.327 -32,32 l 0.448,290.709 -58.901,-58.901 c -12.712,-12.278 -32.97,-11.926 -45.248,0.786 -11.977,12.401 -11.977,32.061 0,44.462 z"
   id="path872"
   style="fill:#ffffff" />

	<path
   d="m 480,309.333 c -17.673,0 -32,14.327 -32,32 v 97.941 c -0.012,4.814 -3.911,8.714 -8.725,8.725 H 72.725 C 67.911,447.987 64.011,444.088 64,439.274 v -97.941 c 0,-17.673 -14.327,-32 -32,-32 -17.673,0 -32,14.327 -32,32 v 97.941 C 0.047,479.42 32.58,511.953 72.725,512 h 366.549 c 40.146,-0.047 72.678,-32.58 72.725,-72.725 V 341.334 C 512,323.66 497.673,309.333 480,309.333 Z"
   id="path874"
   style="fill:#ffffff" />

</g>
  </g>
</svg>
