<?xml version="1.0" encoding="UTF-8" standalone="no"?>
<svg
   xmlns:dc="http://purl.org/dc/elements/1.1/"
   xmlns:cc="http://creativecommons.org/ns#"
   xmlns:rdf="http://www.w3.org/1999/02/22-rdf-syntax-ns#"
   xmlns:svg="http://www.w3.org/2000/svg"
   xmlns="http://www.w3.org/2000/svg"
   xmlns:sodipodi="http://sodipodi.sourceforge.net/DTD/sodipodi-0.dtd"
   xmlns:inkscape="http://www.inkscape.org/namespaces/inkscape"
   width="96"
   height="32"
   viewBox="0 0 25.399999 8.4666659"
   version="1.1"
   id="svg8"
   inkscape:version="1.0.2-2 (e86c870879, 2021-01-15)"
   sodipodi:docname="repo-button.svg"
   inkscape:export-filename="C:\Users\alen2_000\Downloads\test.png"
   inkscape:export-xdpi="96"
   inkscape:export-ydpi="96">
  <defs
     id="defs2" />
  <sodipodi:namedview
     id="base"
     pagecolor="#ffffff"
     bordercolor="#666666"
     borderopacity="1.0"
     inkscape:pageopacity="0.0"
     inkscape:pageshadow="2"
     inkscape:zoom="2"
     inkscape:cx="135.08362"
     inkscape:cy="55.769948"
     inkscape:document-units="px"
     inkscape:current-layer="layer1"
     inkscape:document-rotation="0"
     showgrid="false"
     inkscape:pagecheckerboard="true"
     borderlayer="true"
     inkscape:showpageshadow="false"
     units="px"
     inkscape:window-width="1366"
     inkscape:window-height="715"
     inkscape:window-x="-8"
     inkscape:window-y="-8"
     inkscape:window-maximized="1"
     showguides="false" />
  <metadata
     id="metadata5">
    <rdf:RDF>
      <cc:Work
         rdf:about="">
        <dc:format>image/svg+xml</dc:format>
        <dc:type
           rdf:resource="http://purl.org/dc/dcmitype/StillImage" />
        <dc:title></dc:title>
      </cc:Work>
    </rdf:RDF>
  </metadata>
  <g
     inkscape:label="base"
     inkscape:groupmode="layer"
     id="layer1"
     style="display:inline">
    <rect
       style="fill:#2171f3;fill-opacity:1;fill-rule:evenodd;stroke-width:3.00071;stroke-linecap:round;stroke-linejoin:round"
       id="rect11"
       width="25.399998"
       height="8.4666662"
       x="-1.110223e-16"
       y="-5.5511151e-17"
       ry="1.5716102"
       rx="0" />
  </g>
  <g
     inkscape:groupmode="layer"
     id="layer2"
     inkscape:label="Icon"
     sodipodi:insensitive="true">
    <path
       d="M 6.3499999,1.3229166 H 2.6458333 A 1.3245042,1.3245042 0 0 0 1.3229166,2.6458331 V 5.8208329 A 1.3245042,1.3245042 0 0 0 2.6458333,7.1437496 H 6.3499999 A 1.3245042,1.3245042 0 0 0 7.6729167,5.8208329 V 2.6458331 A 1.3245042,1.3245042 0 0 0 6.3499999,1.3229166 Z M 2.6458333,1.8520832 H 6.3499999 A 0.79374997,0.79374997 0 0 1 7.1437501,2.6458331 V 2.9104166 H 1.8520832 V 2.6458331 A 0.79374997,0.79374997 0 0 1 2.6458333,1.8520832 Z M 6.3499999,6.6145834 H 2.6458333 A 0.79374997,0.79374997 0 0 1 1.8520832,5.8208329 V 3.4395832 H 7.1437501 V 5.8208329 A 0.79374997,0.79374997 0 0 1 6.3499999,6.6145834 Z m 0,-2.116667 A 0.26458333,0.26458333 0 0 1 6.0854164,4.7624999 h -3.175 a 0.26458333,0.26458333 0 0 1 0,-0.5291666 h 3.175 A 0.26458333,0.26458333 0 0 1 6.3499999,4.4979164 Z M 5.2916666,5.5562498 A 0.26458333,0.26458333 0 0 1 5.0270832,5.8208329 H 2.9104164 a 0.26458333,0.26458333 0 0 1 0,-0.5291665 H 5.0270832 A 0.26458333,0.26458333 0 0 1 5.2916666,5.5562498 Z M 2.1166667,2.38125 A 0.26458333,0.26458333 0 1 1 2.3812498,2.6458331 0.26458333,0.26458333 0 0 1 2.1166667,2.38125 Z m 0.7937497,0 A 0.26458333,0.26458333 0 1 1 3.1749998,2.6458331 0.26458333,0.26458333 0 0 1 2.9104164,2.38125 Z m 0.79375,0 A 0.26458333,0.26458333 0 1 1 3.9687499,2.6458331 0.26458333,0.26458333 0 0 1 3.7041664,2.38125 Z"
       id="path865"
       style="display:inline;fill:#ffffff;stroke-width:0.264582" />
    <text
       xml:space="preserve"
       style="font-style:normal;font-variant:normal;font-weight:bold;font-stretch:normal;font-size:4.8927px;font-family:Poppins;-inkscape-font-specification:'Poppins Bold';fill:#ffffff;stroke-width:0.122318"
       x="10.612818"
       y="5.9580097"
       id="text879"><tspan
         sodipodi:role="line"
         id="tspan877"
         x="10.612818"
         y="5.9580097"
         style="font-style:normal;font-variant:normal;font-weight:bold;font-stretch:normal;font-family:Poppins;-inkscape-font-specification:'Poppins Bold';fill:#ffffff;stroke-width:0.122318">REPO</tspan></text>
  </g>
</svg>
